<svg xmlns="http://www.w3.org/2000/svg" viewBox="0 0 1600 900" width="1600" height="900">
<rect width="1600" height="900" fill="#1A1A2E"/>
<text x="800" y="40" text-anchor="middle" font-family="monospace" font-size="22" font-weight="bold" fill="#FFFFFF">NUCLEO-F401RE Pin Map — auro-balancing-necleo</text>
<text x="800" y="62" text-anchor="middle" font-family="monospace" font-size="13" fill="#E0E0E0">STM32F401RET6 · 84MHz · 512KB Flash · 96KB RAM</text>
<rect x="580" y="85" width="440" height="720" rx="12" fill="#16213E" stroke="#0F3460" stroke-width="2"/>
<text x="800" y="120" text-anchor="middle" font-family="monospace" font-size="16" font-weight="bold" fill="#FFFFFF">NUCLEO-F401RE</text>
<text x="800" y="140" text-anchor="middle" font-family="monospace" font-size="11" fill="#E0E0E0">MB1136 Rev C</text>
<rect x="610" y="150" width="170" height="35" rx="4" fill="#0F3460" stroke="#1A4B8C" stroke-width="1"/>
<text x="618" y="165" font-family="monospace" font-size="11" font-weight="bold" fill="#FFFFFF">TIM1 PWM</text>
<text x="618" y="178" font-family="monospace" font-size="9" fill="#E0E0E0">Motor A</text>
<rect x="610" y="195" width="170" height="35" rx="4" fill="#0F3460" stroke="#1A4B8C" stroke-width="1"/>
<text x="618" y="210" font-family="monospace" font-size="11" font-weight="bold" fill="#FFFFFF">TIM4 PWM</text>
<text x="618" y="223" font-family="monospace" font-size="9" fill="#E0E0E0">Motor B</text>
<rect x="610" y="250" width="170" height="35" rx="4" fill="#0F3460" stroke="#1A4B8C" stroke-width="1"/>
<text x="618" y="265" font-family="monospace" font-size="11" font-weight="bold" fill="#FFFFFF">TIM2 ENC</text>
<text x="618" y="278" font-family="monospace" font-size="9" fill="#E0E0E0">Encoder A</text>
<rect x="610" y="295" width="170" height="35" rx="4" fill="#0F3460" stroke="#1A4B8C" stroke-width="1"/>
<text x="618" y="310" font-family="monospace" font-size="11" font-weight="bold" fill="#FFFFFF">TIM3 ENC</text>
<text x="618" y="323" font-family="monospace" font-size="9" fill="#E0E0E0">Encoder B</text>
<rect x="610" y="350" width="170" height="35" rx="4" fill="#0F3460" stroke="#1A4B8C" stroke-width="1"/>
<text x="618" y="365" font-family="monospace" font-size="11" font-weight="bold" fill="#FFFFFF">ADC1 DMA</text>
<text x="618" y="378" font-family="monospace" font-size="9" fill="#E0E0E0">CT_A+Batt+CT_B</text>
<rect x="610" y="405" width="170" height="35" rx="4" fill="#0F3460" stroke="#1A4B8C" stroke-width="1"/>
<text x="618" y="420" font-family="monospace" font-size="11" font-weight="bold" fill="#FFFFFF">USART2</text>
<text x="618" y="433" font-family="monospace" font-size="9" fill="#E0E0E0">921600 VCP</text>
<rect x="810" y="150" width="170" height="35" rx="4" fill="#0F3460" stroke="#1A4B8C" stroke-width="1"/>
<text x="818" y="165" font-family="monospace" font-size="11" font-weight="bold" fill="#FFFFFF">TIM10</text>
<text x="818" y="178" font-family="monospace" font-size="9" fill="#E0E0E0">1kHz PID</text>
<rect x="810" y="195" width="170" height="35" rx="4" fill="#0F3460" stroke="#1A4B8C" stroke-width="1"/>
<text x="818" y="210" font-family="monospace" font-size="11" font-weight="bold" fill="#FFFFFF">TIM11</text>
<text x="818" y="223" font-family="monospace" font-size="9" fill="#E0E0E0">50Hz Telem</text>
<rect x="810" y="250" width="170" height="35" rx="4" fill="#0F3460" stroke="#1A4B8C" stroke-width="1"/>
<text x="818" y="265" font-family="monospace" font-size="11" font-weight="bold" fill="#FFFFFF">IWDG</text>
<text x="818" y="278" font-family="monospace" font-size="9" fill="#E0E0E0">Watchdog</text>
<rect x="810" y="305" width="170" height="35" rx="4" fill="#0F3460" stroke="#1A4B8C" stroke-width="1"/>
<text x="818" y="320" font-family="monospace" font-size="11" font-weight="bold" fill="#FFFFFF">GPIO</text>
<text x="818" y="333" font-family="monospace" font-size="9" fill="#E0E0E0">LEDs+Button+EN</text>
<text x="150" y="95" text-anchor="middle" font-family="monospace" font-size="16" font-weight="bold" fill="#FFFFFF">CN7 (Left)</text>
<text x="30" y="115" font-family="monospace" font-size="9" font-weight="bold" fill="#E0E0E0">Pin  Signal  Use</text>
<circle cx="35" cy="140" r="6" fill="#E65100"/>
<text x="48" y="144" font-family="monospace" font-size="11" fill="#E0E0E0"> 1</text>
<text x="75" y="144" font-family="monospace" font-size="11" font-weight="bold" fill="#FFFFFF">PC10</text>
<text x="135" y="144" font-family="monospace" font-size="10" fill="#E0E0E0">Motor A EN</text>
<circle cx="35" cy="178" r="6" fill="#E65100"/>
<text x="48" y="182" font-family="monospace" font-size="11" fill="#E0E0E0"> 2</text>
<text x="75" y="182" font-family="monospace" font-size="11" font-weight="bold" fill="#FFFFFF">PC11</text>
<text x="135" y="182" font-family="monospace" font-size="10" fill="#E0E0E0">Motor B EN</text>
<circle cx="35" cy="216" r="6" fill="#2E7D32"/>
<text x="48" y="220" font-family="monospace" font-size="11" fill="#E0E0E0"> 3</text>
<text x="75" y="220" font-family="monospace" font-size="11" font-weight="bold" fill="#FFFFFF">PC12</text>
<text x="135" y="220" font-family="monospace" font-size="10" fill="#E0E0E0">—</text>
<circle cx="35" cy="254" r="6" fill="#2E7D32"/>
<text x="48" y="258" font-family="monospace" font-size="11" fill="#E0E0E0"> 4</text>
<text x="75" y="258" font-family="monospace" font-size="11" font-weight="bold" fill="#FFFFFF">PD2</text>
<text x="135" y="258" font-family="monospace" font-size="10" fill="#E0E0E0">—</text>
<circle cx="35" cy="292" r="6" fill="#F9A825"/>
<text x="48" y="296" font-family="monospace" font-size="11" fill="#E0E0E0"> 7</text>
<text x="75" y="296" font-family="monospace" font-size="11" font-weight="bold" fill="#FFFFFF">BOOT0</text>
<text x="135" y="296" font-family="monospace" font-size="10" fill="#E0E0E0">Boot mode</text>
<circle cx="35" cy="330" r="6" fill="#37474F"/>
<text x="48" y="334" font-family="monospace" font-size="11" fill="#E0E0E0"> 8</text>
<text x="75" y="334" font-family="monospace" font-size="11" font-weight="bold" fill="#FFFFFF">GND</text>
<text x="135" y="334" font-family="monospace" font-size="10" fill="#E0E0E0">Ground</text>
<circle cx="35" cy="368" r="6" fill="#C62828"/>
<text x="48" y="372" font-family="monospace" font-size="11" fill="#E0E0E0">13</text>
<text x="75" y="372" font-family="monospace" font-size="11" font-weight="bold" fill="#FFFFFF">PA13</text>
<text x="135" y="372" font-family="monospace" font-size="10" fill="#E0E0E0">SWDIO</text>
<circle cx="35" cy="406" r="6" fill="#C62828"/>
<text x="48" y="410" font-family="monospace" font-size="11" fill="#E0E0E0">15</text>
<text x="75" y="410" font-family="monospace" font-size="11" font-weight="bold" fill="#FFFFFF">PA14</text>
<text x="135" y="410" font-family="monospace" font-size="10" fill="#E0E0E0">SWCLK</text>
<circle cx="35" cy="444" r="6" fill="#37474F"/>
<text x="48" y="448" font-family="monospace" font-size="11" fill="#E0E0E0">16</text>
<text x="75" y="448" font-family="monospace" font-size="11" font-weight="bold" fill="#FFFFFF">+3.3V</text>
<text x="135" y="448" font-family="monospace" font-size="10" fill="#E0E0E0">Power</text>
<circle cx="35" cy="482" r="6" fill="#E65100"/>
<text x="48" y="486" font-family="monospace" font-size="11" fill="#E0E0E0">21</text>
<text x="75" y="486" font-family="monospace" font-size="11" font-weight="bold" fill="#FFFFFF">PB7</text>
<text x="135" y="486" font-family="monospace" font-size="10" fill="#E0E0E0">Motor B PWM CH2</text>
<circle cx="35" cy="520" r="6" fill="#E65100"/>
<text x="48" y="524" font-family="monospace" font-size="11" fill="#E0E0E0">23</text>
<text x="75" y="524" font-family="monospace" font-size="11" font-weight="bold" fill="#FFFFFF">PC13</text>
<text x="135" y="524" font-family="monospace" font-size="10" fill="#E0E0E0">E-stop (B1)</text>
<circle cx="35" cy="558" r="6" fill="#E65100"/>
<text x="48" y="562" font-family="monospace" font-size="11" fill="#E0E0E0">28</text>
<text x="75" y="562" font-family="monospace" font-size="11" font-weight="bold" fill="#FFFFFF">PA0</text>
<text x="135" y="562" font-family="monospace" font-size="10" fill="#E0E0E0">Encoder A CH1</text>
<circle cx="35" cy="596" r="6" fill="#E65100"/>
<text x="48" y="600" font-family="monospace" font-size="11" fill="#E0E0E0">30</text>
<text x="75" y="600" font-family="monospace" font-size="11" font-weight="bold" fill="#FFFFFF">PA1</text>
<text x="135" y="600" font-family="monospace" font-size="10" fill="#E0E0E0">Encoder A CH2</text>
<rect x="25" y="583" width="350" height="24" rx="4" fill="none" stroke="#F9A825" stroke-width="2" stroke-dasharray="4,2"/>
<text x="385" y="600" font-family="monospace" font-size="9" font-weight="bold" fill="#F9A825">ENC_A_CH2</text>
<circle cx="35" cy="634" r="6" fill="#2E7D32"/>
<text x="48" y="638" font-family="monospace" font-size="11" fill="#E0E0E0">32</text>
<text x="75" y="638" font-family="monospace" font-size="11" font-weight="bold" fill="#FFFFFF">PA4</text>
<text x="135" y="638" font-family="monospace" font-size="10" fill="#E0E0E0">—</text>
<circle cx="35" cy="672" r="6" fill="#E65100"/>
<text x="48" y="676" font-family="monospace" font-size="11" fill="#E0E0E0">37</text>
<text x="75" y="676" font-family="monospace" font-size="11" font-weight="bold" fill="#FFFFFF">PC3</text>
<text x="135" y="676" font-family="monospace" font-size="10" fill="#E0E0E0">Current sense A</text>
<text x="1220" y="95" text-anchor="middle" font-family="monospace" font-size="16" font-weight="bold" fill="#FFFFFF">CN10 (Right)</text>
<text x="1100" y="115" font-family="monospace" font-size="9" font-weight="bold" fill="#E0E0E0">Pin  Signal  Use</text>
<circle cx="1105" cy="140" r="6" fill="#2E7D32"/>
<text x="1118" y="144" font-family="monospace" font-size="11" fill="#E0E0E0"> 3</text>
<text x="1145" y="144" font-family="monospace" font-size="11" font-weight="bold" fill="#FFFFFF">PB8</text>
<text x="1205" y="144" font-family="monospace" font-size="10" fill="#E0E0E0">—</text>
<circle cx="1105" cy="178" r="6" fill="#2E7D32"/>
<text x="1118" y="182" font-family="monospace" font-size="11" fill="#E0E0E0"> 5</text>
<text x="1145" y="182" font-family="monospace" font-size="11" font-weight="bold" fill="#FFFFFF">PB9</text>
<text x="1205" y="182" font-family="monospace" font-size="10" fill="#E0E0E0">—</text>
<circle cx="1105" cy="216" r="6" fill="#E65100"/>
<text x="1118" y="220" font-family="monospace" font-size="11" fill="#E0E0E0">11</text>
<text x="1145" y="220" font-family="monospace" font-size="11" font-weight="bold" fill="#FFFFFF">PA5</text>
<text x="1205" y="220" font-family="monospace" font-size="10" fill="#E0E0E0">Heartbeat LED</text>
<circle cx="1105" cy="254" r="6" fill="#E65100"/>
<text x="1118" y="258" font-family="monospace" font-size="11" fill="#E0E0E0">13</text>
<text x="1145" y="258" font-family="monospace" font-size="11" font-weight="bold" fill="#FFFFFF">PA6</text>
<text x="1205" y="258" font-family="monospace" font-size="10" fill="#E0E0E0">Encoder B CH1</text>
<circle cx="1105" cy="292" r="6" fill="#E65100"/>
<text x="1118" y="296" font-family="monospace" font-size="11" fill="#E0E0E0">15</text>
<text x="1145" y="296" font-family="monospace" font-size="11" font-weight="bold" fill="#FFFFFF">PA7</text>
<text x="1205" y="296" font-family="monospace" font-size="10" fill="#E0E0E0">Encoder B CH2</text>
<circle cx="1105" cy="330" r="6" fill="#E65100"/>
<text x="1118" y="334" font-family="monospace" font-size="11" fill="#E0E0E0">17</text>
<text x="1145" y="334" font-family="monospace" font-size="11" font-weight="bold" fill="#FFFFFF">PB6</text>
<text x="1205" y="334" font-family="monospace" font-size="10" fill="#E0E0E0">Motor B PWM CH1</text>
<circle cx="1105" cy="368" r="6" fill="#2E7D32"/>
<text x="1118" y="372" font-family="monospace" font-size="11" fill="#E0E0E0">19</text>
<text x="1145" y="372" font-family="monospace" font-size="11" font-weight="bold" fill="#FFFFFF">PC7</text>
<text x="1205" y="372" font-family="monospace" font-size="10" fill="#E0E0E0">—</text>
<circle cx="1105" cy="406" r="6" fill="#E65100"/>
<text x="1118" y="410" font-family="monospace" font-size="11" fill="#E0E0E0">21</text>
<text x="1145" y="410" font-family="monospace" font-size="11" font-weight="bold" fill="#FFFFFF">PA9</text>
<text x="1205" y="410" font-family="monospace" font-size="10" fill="#E0E0E0">Motor A PWM CH2</text>
<circle cx="1105" cy="444" r="6" fill="#E65100"/>
<text x="1118" y="448" font-family="monospace" font-size="11" fill="#E0E0E0">22</text>
<text x="1145" y="448" font-family="monospace" font-size="11" font-weight="bold" fill="#FFFFFF">PB2</text>
<text x="1205" y="448" font-family="monospace" font-size="10" fill="#E0E0E0">Fault LED</text>
<circle cx="1105" cy="482" r="6" fill="#E65100"/>
<text x="1118" y="486" font-family="monospace" font-size="11" fill="#E0E0E0">23</text>
<text x="1145" y="486" font-family="monospace" font-size="11" font-weight="bold" fill="#FFFFFF">PA8</text>
<text x="1205" y="486" font-family="monospace" font-size="10" fill="#E0E0E0">Motor A PWM CH1</text>
<circle cx="1105" cy="520" r="6" fill="#E65100"/>
<text x="1118" y="524" font-family="monospace" font-size="11" fill="#E0E0E0">24</text>
<text x="1145" y="524" font-family="monospace" font-size="11" font-weight="bold" fill="#FFFFFF">PB1</text>
<text x="1205" y="524" font-family="monospace" font-size="10" fill="#E0E0E0">Battery ADC</text>
<circle cx="1105" cy="558" r="6" fill="#C62828"/>
<text x="1118" y="562" font-family="monospace" font-size="11" fill="#E0E0E0">31</text>
<text x="1145" y="562" font-family="monospace" font-size="11" font-weight="bold" fill="#FFFFFF">PB3</text>
<text x="1205" y="562" font-family="monospace" font-size="10" fill="#E0E0E0">SWO (reserved)</text>
<rect x="1095" y="545" width="350" height="24" rx="4" fill="none" stroke="#C62828" stroke-width="2" stroke-dasharray="4,2"/>
<text x="1455" y="562" font-family="monospace" font-size="9" font-weight="bold" fill="#C62828">SB15 ON</text>
<circle cx="1105" cy="596" r="6" fill="#2E7D32"/>
<text x="1118" y="600" font-family="monospace" font-size="11" fill="#E0E0E0">33</text>
<text x="1145" y="600" font-family="monospace" font-size="11" font-weight="bold" fill="#FFFFFF">PA10</text>
<text x="1205" y="600" font-family="monospace" font-size="10" fill="#E0E0E0">—</text>
<circle cx="1105" cy="634" r="6" fill="#E65100"/>
<text x="1118" y="638" font-family="monospace" font-size="11" fill="#E0E0E0">34</text>
<text x="1145" y="638" font-family="monospace" font-size="11" font-weight="bold" fill="#FFFFFF">PC4</text>
<text x="1205" y="638" font-family="monospace" font-size="10" fill="#E0E0E0">Current sense B</text>
<circle cx="1105" cy="672" r="6" fill="#C62828"/>
<text x="1118" y="676" font-family="monospace" font-size="11" fill="#E0E0E0">35</text>
<text x="1145" y="676" font-family="monospace" font-size="11" font-weight="bold" fill="#FFFFFF">PA2</text>
<text x="1205" y="676" font-family="monospace" font-size="10" fill="#E0E0E0">VCP TX (USART2)</text>
<circle cx="1105" cy="710" r="6" fill="#C62828"/>
<text x="1118" y="714" font-family="monospace" font-size="11" fill="#E0E0E0">37</text>
<text x="1145" y="714" font-family="monospace" font-size="11" font-weight="bold" fill="#FFFFFF">PA3</text>
<text x="1205" y="714" font-family="monospace" font-size="10" fill="#E0E0E0">VCP RX (USART2)</text>
<text x="620" y="520" font-family="monospace" font-size="13" font-weight="bold" fill="#FFFFFF">Legend</text>
<circle cx="628" cy="538" r="5" fill="#E65100"/>
<text x="642" y="542" font-family="monospace" font-size="11" fill="#E0E0E0">PROJ  — Project pin</text>
<circle cx="628" cy="560" r="5" fill="#C62828"/>
<text x="642" y="564" font-family="monospace" font-size="11" fill="#E0E0E0">SYS   — System reserved</text>
<circle cx="628" cy="582" r="5" fill="#F9A825"/>
<text x="642" y="586" font-family="monospace" font-size="11" fill="#E0E0E0">WARN  — Conditional</text>
<circle cx="628" cy="604" r="5" fill="#2E7D32"/>
<text x="642" y="608" font-family="monospace" font-size="11" fill="#E0E0E0">AVAIL — Free</text>
<circle cx="628" cy="626" r="5" fill="#37474F"/>
<text x="642" y="630" font-family="monospace" font-size="11" fill="#E0E0E0">PWR   — Power/GND</text>
<text x="620" y="675" font-family="monospace" font-size="11" font-weight="bold" fill="#F9A825">PA1 = ENC_A_CH2 (TIM2_CH2 AF1)</text>
<text x="620" y="691" font-family="monospace" font-size="10" fill="#E0E0E0">PB3 avoided — SWO trace via SB15 (ON)</text>
<text x="620" y="711" font-family="monospace" font-size="11" font-weight="bold" fill="#E65100">PWM: 20kHz · PID: 1kHz · Telem: 50Hz</text>
<text x="620" y="727" font-family="monospace" font-size="10" fill="#E0E0E0">ADC1 3-ch DMA: IN13 + IN9 + IN14</text>
<text x="800" y="885" text-anchor="middle" font-family="monospace" font-size="10" fill="#666">RM0368 Rev5 · UM1724 Rev17 · rnd-southerniot/auro-balancing-necleo</text>
</svg>
